# xmcd
#
# Track frame offsets: 
#        150
#        30472
#        66049
#        103779
#        134428
#        173142
#        205778
#        242085
#        269989
#        299973
#        327001
#
# Disc length: 4746 seconds
#
# Revision: 1
# Processed by: cddbd v1.5.2PL0 Copyright (c) Steve Scherf et al.
# Submitted via: ExactAudioCopy v1.0b3
#
DISCID=ae12880b
DTITLE=Various Artist - D.Trance Vol. 33 - CD 1
DYEAR=2006
DGENRE=New Age
TTITLE0=Megara Vs. DJ Lee - Outside World (Club Mix)
TTITLE1=Dave 202 - Imagine Yourself (Original Mix)
TTITLE2=Yves Deruyter - Infinity (Original Mix)
TTITLE3=Bas and Ram - Speed Of Light (Original Mix)
TTITLE4=Pervading Call Two - On My Mind (Ace Da Brain Remix)
TTITLE5=V-Tek - Utopia (Original Mix)
TTITLE6=Musikman - Day After Tomorrow (Original Mix)
TTITLE7=Niels De Vries - 12 Inch (Rocco Vs. Bass-T Remix)
TTITLE8=Phalanx - Symphony In Gminor (DejaVu Remix)
TTITLE9=One More Angel - Breathe (DJ Tatana Remix)
TTITLE10=Aramanja - Memories (Original Mix)
EXTD=YEAR: 2006
EXTT0=
EXTT1=
EXTT2=
EXTT3=
EXTT4=
EXTT5=
EXTT6=
EXTT7=
EXTT8=
EXTT9=
EXTT10=
PLAYORDER=
